<svg width="27" height="30" viewBox="0 0 27 30" fill="none" xmlns="http://www.w3.org/2000/svg">
<path d="M11.3996 0C8.37622 3.33632e-06 5.47671 1.20101 3.33888 3.33883C1.20105 5.47664 2.23736e-05 8.37613 0 11.3995C-1.57008e-06 14.4228 1.20102 17.3223 3.33885 19.4602C5.47668 21.598 8.3762 22.799 11.3996 22.799C14.4229 22.799 17.3224 21.598 19.4603 19.4602C21.5981 17.3223 22.7991 14.4228 22.7991 11.3995C22.7991 8.37613 21.5981 5.47664 19.4602 3.33883C17.3224 1.20101 14.4229 3.33632e-06 11.3996 0V0ZM11.3996 1.98143C12.6625 1.98143 13.913 2.22503 15.0798 2.69833C16.2466 3.17162 17.3067 3.86535 18.1998 4.7399C19.0928 5.61444 19.8012 6.65268 20.2845 7.79533C20.7678 8.93798 21.0165 10.1627 21.0165 11.3995C21.0165 12.6363 20.7678 13.8609 20.2845 15.0036C19.8012 16.1462 19.0928 17.1845 18.1998 18.059C17.3067 18.9336 16.2466 19.6273 15.0798 20.1006C13.913 20.5739 12.6625 20.8175 11.3996 20.8175C8.849 20.8175 6.40291 19.8252 4.5994 18.059C2.79589 16.2928 1.78269 13.8973 1.78269 11.3995C1.78269 8.90165 2.79589 6.50615 4.5994 4.73993C6.40291 2.97371 8.849 1.98145 11.3996 1.98143V1.98143Z" fill="#1C1C1C"/>
<path d="M24.9943 25.659L19.8453 19.6898C18.9577 18.6609 17.8746 18.3029 17.4261 18.8903C16.9776 19.4777 17.3335 20.788 18.2211 21.8169L23.37 27.7861C24.2576 28.8151 25.3407 29.173 25.7892 28.5856C26.2378 27.9982 25.8818 26.6879 24.9943 25.659Z" fill="#1C1C1C"/>
</svg>
